<?xml version="1.0" encoding="UTF-8"?><svg id="Layer_1" xmlns="http://www.w3.org/2000/svg" viewBox="0 0 1000 500"><defs><style>.cls-1{fill:#0cf;}.cls-2{fill:#fff;}.cls-3{fill:#9ff;}</style></defs><path class="cls-2" d="m322.88,154.95c33,0,61.23,11.72,84.66,35.15,23.44,23.44,35.15,51.66,35.15,84.66s-11.72,61.23-35.15,84.66c-23.44,23.44-51.66,35.15-84.66,35.15s-61.23-11.72-84.66-35.15c-23.44-23.43-35.15-51.65-35.15-84.66s11.72-61.23,35.15-84.66c23.43-23.43,51.66-35.15,84.66-35.15Zm0,51.38c-19.14,0-35.43,6.73-48.88,20.18-13.31,13.45-19.97,29.75-19.97,48.88s6.66,35.23,19.97,48.67c13.45,13.45,29.75,20.18,48.88,20.18s35.22-6.73,48.68-20.18c13.45-13.45,20.18-29.67,20.18-48.67s-6.73-35.43-20.18-48.88c-13.45-13.45-29.68-20.18-48.68-20.18Z"/><path class="cls-3" d="m350.13,317.32c-9.99,10.09-14.98,22.26-14.98,36.51s4.99,26.58,14.98,36.66c10.09,9.98,22.31,14.98,36.66,14.98s26.52-4.99,36.51-14.98c10.09-10.09,15.13-22.31,15.13-36.66s-5.05-26.42-15.13-36.51c-10.09-10.09-22.26-15.13-36.51-15.13s-26.58,5.05-36.66,15.13Z"/><path class="cls-1" d="m350.13,390.49c10.09,9.98,22.31,14.98,36.66,14.98s26.52-4.99,36.51-14.98c10.09-10.09,15.13-22.31,15.13-36.66s-5.05-26.42-15.13-36.51c0,0,22.8,35.98-7.02,65.81-30.26,30.26-66.15,7.36-66.15,7.36Z"/><path class="cls-2" d="m365.63,329.41c-4.66,4.3-10.6,5.66-13.28,3.05-2.67-2.62-1.06-8.22,3.6-12.52,4.66-4.3,10.6-5.66,13.28-3.05,2.67,2.61,1.06,8.22-3.6,12.52Z"/><path class="cls-3" d="m345.12,123.98c-13.31,13.45-19.97,29.68-19.97,48.67s6.66,35.43,19.97,48.88c13.45,13.31,29.75,19.97,48.88,19.97s35.36-6.66,48.68-19.97c13.45-13.45,20.18-29.75,20.18-48.88s-6.73-35.22-20.18-48.67c-13.45-13.45-29.68-20.18-48.68-20.18s-35.43,6.73-48.88,20.18Z"/><path class="cls-1" d="m345.12,221.53c13.45,13.31,29.75,19.97,48.88,19.97s35.36-6.66,48.68-19.97c13.45-13.45,20.18-29.75,20.18-48.88s-6.73-35.22-20.18-48.67c0,0,30.4,47.98-9.36,87.74-40.34,40.34-88.2,9.81-88.2,9.81Z"/><path class="cls-2" d="m365.78,140.1c-6.21,5.73-14.14,7.55-17.7,4.06-3.56-3.49-1.42-10.96,4.8-16.69,6.21-5.73,14.14-7.55,17.7-4.06,3.56,3.49,1.42,10.96-4.8,16.69Z"/><path class="cls-2" d="m103.29,205.92c-6.1,0-11.23,2.08-15.39,6.24-4.16,4.3-6.24,9.43-6.24,15.39,0,8.32,4.02,14.56,12.06,18.72,2.77,1.53,14.35,4.99,34.74,10.4,16.5,4.72,28.77,10.89,36.82,18.51,11.51,10.96,17.27,26.56,17.27,46.8s-7.07,37.1-21.22,51.38c-14.28,14.14-31.41,21.22-51.38,21.22h-54.29c-6.8,0-12.69-2.49-17.68-7.49-4.99-4.71-7.49-10.61-7.49-17.68v-.42c0-6.93,2.5-12.9,7.49-17.89,4.99-4.99,10.89-7.49,17.68-7.49h56.37c6.1,0,11.23-2.08,15.39-6.24,4.16-4.16,6.24-9.29,6.24-15.39,0-7.63-3.95-13.38-11.86-17.27-2.08-.97-13.73-4.44-34.95-10.4-16.5-4.85-28.78-11.23-36.82-19.14-11.51-11.23-17.26-27.11-17.26-47.64s7.07-37.03,21.22-51.17c14.28-14.28,31.41-21.43,51.38-21.43h38.27c6.93,0,12.9,2.49,17.89,7.49,4.99,4.99,7.49,10.96,7.49,17.89v.41c0,7.07-2.5,12.97-7.49,17.68-4.99,4.99-10.96,7.49-17.89,7.49h-40.36Z"/><path class="cls-2" d="m680.8,87.5c6.79,0,12.69,2.43,17.68,7.28,4.99,4.99,7.49,10.96,7.49,17.89v162.72c-.14,33.01-11.93,61.09-35.36,84.25-23.44,23.3-51.59,34.95-84.45,34.95s-61.23-11.72-84.66-35.15c-23.44-23.43-35.15-51.65-35.15-84.66s11.72-61.23,35.15-84.66c23.44-23.43,51.66-35.15,84.66-35.15,30.09,0,53.04,6.93,68.85,20.8v-63.08c0-6.93,2.5-12.9,7.49-17.89,4.99-4.85,10.89-7.28,17.68-7.28h.62Zm-143.53,139.01c-13.31,13.45-19.97,29.75-19.97,48.88s6.66,35.23,19.97,48.67c13.45,13.45,29.75,20.18,48.88,20.18s35.22-6.73,48.68-20.18c13.45-13.45,20.18-29.67,20.18-48.67s-6.73-35.43-20.18-48.88c-13.45-13.45-29.68-20.18-48.68-20.18s-35.43,6.73-48.88,20.18Z"/><path class="cls-2" d="m934.37,190.11c23.43,23.44,35.15,51.66,35.15,84.66v94.65c0,7.07-2.5,12.97-7.49,17.68-4.99,4.99-10.89,7.49-17.68,7.49h-.62c-6.8,0-12.69-2.49-17.68-7.49-4.99-4.71-7.49-10.61-7.49-17.68-15.81,16.78-38.76,25.17-68.85,25.17-33.01,0-61.23-11.72-84.66-35.15-23.44-23.43-35.15-51.65-35.15-84.66s11.72-61.23,35.15-84.66c23.43-23.43,51.65-35.15,84.66-35.15s61.22,11.72,84.66,35.15Zm-133.54,35.99c-13.31,13.45-19.97,29.68-19.97,48.67s6.66,35.43,19.97,48.88c13.45,13.31,29.75,19.97,48.88,19.97s35.36-6.66,48.68-19.97c13.45-13.45,20.18-29.75,20.18-48.88s-6.73-35.22-20.18-48.67c-13.45-13.45-29.68-20.18-48.68-20.18s-35.43,6.73-48.88,20.18Z"/></svg>